<?xml version="1.0" encoding="utf-8"?>
<!-- Generator: Adobe Illustrator 27.10.0, SVG Export Plug-In . SVG Version: 6.00 Build 0)  -->
<svg version="1.1" id="Layer_1" xmlns="http://www.w3.org/2000/svg" xmlns:xlink="http://www.w3.org/1999/xlink" x="0px" y="0px"
	 viewBox="0 0 393.98 197.59" style="enable-background:new 0 0 393.98 197.59;" xml:space="preserve">
<style type="text/css">
	.st0{font-family:'MyriadPro-Regular';}
	.st1{font-size:12px;}
	.st2{fill:#BD912D;}
	.st3{fill:#00498F;}
	.st4{fill-rule:evenodd;clip-rule:evenodd;fill:#00498F;}
</style>
<text transform="matrix(1 0 0 1 194.5551 52.8739)" class="st0 st1"> </text>
<g>
	<g>
		<path class="st2" d="M155.22,93.9h11.61c8.44,0,10.58,5.08,10.58,9.23c0,4.2-3.12,8.16-8.11,8.72l9.37,15.06h-5.6l-8.39-14.55
			h-4.99v14.55h-4.48V93.9z M159.7,108.45h5.87c3.54,0,7.09-0.84,7.09-5.31s-3.54-5.32-7.09-5.32h-5.87V108.45z"/>
		<path class="st2" d="M182.73,107.52c2.33-2.19,5.69-3.26,8.77-3.26c6.53,0,9.23,3.54,9.23,7.37v11.28c0,1.54,0.05,2.84,0.19,4.01
			h-3.73c-0.09-1.12-0.14-2.24-0.14-3.36h-0.09c-1.86,2.84-4.38,3.92-7.74,3.92c-4.1,0-7.65-2.33-7.65-6.62
			c0-5.69,5.46-7.65,12.17-7.65h3.08v-0.93c0-2.28-1.68-4.66-5.27-4.66c-3.22,0-4.76,1.35-6.29,2.52L182.73,107.52z M194.57,116.28
			c-3.96,0-8.81,0.7-8.81,4.24c0,2.52,1.87,3.59,4.76,3.59c4.66,0,6.29-3.45,6.29-6.43v-1.4H194.57z M193.36,93.9h5.97l-6.95,6.71
			h-3.87L193.36,93.9z"/>
		<path class="st2" d="M228.97,126.91h-4.2v-3.17h-0.09c-1.63,2.38-4.71,3.73-7.69,3.73c-6.85,0-11.24-5.08-11.24-11.61
			c0-6.62,4.43-11.61,11.24-11.61c3.17,0,6.2,1.44,7.69,3.73h0.09V91.67h4.2V126.91z M224.78,115.86c0-4.48-2.8-7.69-7.27-7.69
			c-4.48,0-7.27,3.22-7.27,7.69s2.8,7.69,7.27,7.69C221.98,123.55,224.78,120.34,224.78,115.86z"/>
		<path class="st2" d="M237.74,93.81c1.68,0,3.08,1.4,3.08,3.08c0,1.68-1.4,3.08-3.08,3.08c-1.68,0-3.08-1.4-3.08-3.08
			C234.66,95.21,236.06,93.81,237.74,93.81z M235.64,104.81h4.2v22.1h-4.2V104.81z"/>
		<path class="st2" d="M257.18,104.25c6.57,0,11.75,5.17,11.75,11.61s-5.18,11.61-11.75,11.61c-6.57,0-11.75-5.18-11.75-11.61
			S250.6,104.25,257.18,104.25z M257.18,123.55c4.48,0,7.27-3.22,7.27-7.69s-2.8-7.69-7.27-7.69c-4.48,0-7.27,3.22-7.27,7.69
			S252.7,123.55,257.18,123.55z"/>
	</g>
	<g>
		<path class="st3" d="M177.67,147.75c-2.84-3-5.46-3.82-8.14-3.82c-7.97,0-13.27,6.12-13.27,13.82c0,8.25,5.3,14.36,13.27,14.36
			c3.11,0,6.12-1.42,8.68-4.7l5.68,4.04c-3.49,4.81-8.74,6.88-14.42,6.88c-11.91,0-20.42-8.08-20.42-20.15
			c0-12.4,8.52-20.48,20.42-20.48c5.24,0,9.72,1.69,13.54,6.12L177.67,147.75z"/>
		<path class="st3" d="M186.08,138.69h13.43c7.43,0,14.42,2.4,14.42,11.09c0,5.57-3.22,9.67-8.96,10.48l10.27,17.09h-8.3
			l-8.96-16.38h-5.02v16.38h-6.88V138.69z M198.31,155.07c3.88,0,8.41-0.33,8.41-5.35c0-4.59-4.26-5.13-7.81-5.13h-5.95v10.48
			H198.31z"/>
		<path class="st3" d="M218.03,138.69h25.61v6.23h-18.73v9.5h17.75v6.23h-17.75v10.48h19.71v6.23h-26.59V138.69z"/>
		<path class="st3" d="M261.45,138.69h5.95l16.66,38.66h-7.86l-3.6-8.85h-16.77l-3.49,8.85h-7.7L261.45,138.69z M270.19,162.61
			l-5.95-15.73l-6.06,15.73H270.19z"/>
		<path class="st3" d="M296.95,166.7h-13.49v-5.57h13.49V166.7z"/>
		<path class="st3" d="M300.83,138.69h10.48l10.32,27.09l10.43-27.09h10.38v38.66h-6.55v-32.11h-0.11l-11.74,32.11h-4.81
			l-11.74-32.11h-0.11v32.11h-6.55V138.69z"/>
		<path class="st3" d="M383.13,174.51c-4.7,2.51-10.05,3.82-16,3.82c-11.91,0-20.42-8.08-20.42-20.15c0-12.4,8.52-20.48,20.42-20.48
			c5.9,0,11.19,1.26,15.24,4.86l-5.08,5.13c-2.46-2.4-6.23-3.77-10.1-3.77c-7.97,0-13.27,6.12-13.27,13.82
			c0,8.25,5.3,14.36,13.27,14.36c3.49,0,6.66-0.66,9.06-2.02v-9.12h-7.92v-6.23h14.8V174.51z"/>
	</g>
	<g>
		<g id="G4RzKP_00000047781241937612335020000014918235808999307414_">
			<g>
				<path class="st4" d="M81.19,160c0,1.97,0,3.94,0,6.13c-4.21,0-8.16,0-12.43,0c0-33.85,0-67.73,0-101.88c1.84,0,3.75,0,5.92,0
					c0.09,1.88,0.18,3.71,0.29,5.96c1.95,0.1,3.88,0.2,6.21,0.32c0,2.21,0,4.29,0,6.38l0.11-0.11c-2.07,0-4.14,0-6.19,0
					c0,27.97,0,55.44,0,83.03c2.25,0.1,4.22,0.19,6.2,0.27L81.19,160z"/>
				<path class="st4" d="M132.39,128.09c1.98,0,3.95,0,6.18,0c0,4.1,0,8.13,0,12.58c-6.19,0-12.34,0-18.98,0c0,2.47,0,4.55,0,6.62
					l0.11-0.11c-2.07,0-4.14,0-6.26,0c0-4.52,0-8.46,0-12.85c6.35,0,12.53,0,19.06,0c0-2.41,0-4.38,0-6.35L132.39,128.09z"/>
				<path class="st4" d="M113.29,172.78c-1.97,0-3.93,0-6.39,0c0-4.42,0-8.6,0-12.79l-0.11,0.1c2.04,0,4.09,0,6.4,0
					c0,4.47,0,8.63,0,12.8L113.29,172.78z"/>
				<path class="st4" d="M119.59,147.29c1.96,0,3.91,0,6.4,0c0,4.27,0,8.54,0,12.8l0.11-0.11c-2.06,0-4.13,0-6.4,0
					c0-4.63,0-8.72,0-12.8L119.59,147.29z"/>
				<path class="st4" d="M106.9,159.99c-1.97,0-3.94,0-6.4,0c0-4.44,0-8.62,0-12.8l-0.11,0.1c2.04,0,4.09,0,6.4,0
					c0,4.47,0,8.63,0,12.8L106.9,159.99z"/>
				<path class="st4" d="M125.98,160.09c1.97,0,3.95,0,6.18,0c0,4.07,0,8.1,0,12.68c-2.03,0-4.1,0-6.16,0l0.1,0.12
					c0-4.31-0.01-8.61-0.01-12.91L125.98,160.09z"/>
				<path class="st4" d="M126,172.77c0,1.96,0,3.92,0,6.11c-4.32,0-8.23,0-12.71,0c0-2,0-4.06,0-6.11l-0.1,0.11
					c4.3,0,8.61,0.01,12.91,0.01L126,172.77z"/>
				<path class="st4" d="M81.19,76.9c1.94,0,3.89,0,6.4,0c0,2.12,0,4.26,0,6.4l0.11-0.12c-2.06,0-4.12,0-6.4,0c0-2.49,0-4.44,0-6.4
					L81.19,76.9z"/>
				<path class="st4" d="M87.59,83.31c1.94,0,3.88,0,6.4,0c0,2.13,0,4.26,0,6.4l0.11-0.12c-2.06,0-4.12,0-6.4,0c0-2.48,0-4.44,0-6.4
					L87.59,83.31z"/>
				<path class="st4" d="M87.59,153.6c0,1.96,0,3.92,0,6.4c-2.27,0-4.33,0-6.4,0l0.11,0.09c0-2.13,0-4.26,0-6.4c2.52,0,4.46,0,6.4,0
					L87.59,153.6z"/>
				<path class="st4" d="M93.98,89.7c2.04,0,4.07,0,6.4,0c0,2.31,0,4.35,0,6.4l0.11-0.11c-2.06,0-4.12,0-6.4,0c0-2.49,0-4.45,0-6.4
					L93.98,89.7z"/>
				<path class="st4" d="M100.38,96.1c1.94,0,3.88,0,6.4,0c0,2.12,0,4.26,0,6.39l0.11-0.11c-2.06,0-4.12,0-6.4,0
					c0-2.48,0-4.44,0-6.4L100.38,96.1z"/>
				<path class="st4" d="M93.99,147.2c0,1.96,0,3.91,0,6.4c-2.28,0-4.34,0-6.4,0l0.11,0.1c0-2.13,0-4.26,0-6.4c2.53,0,4.46,0,6.4,0
					L93.99,147.2z"/>
				<path class="st4" d="M100.5,147.19c-2.17,0-4.34,0-6.51,0.01l0.11,0.09c0-2.08,0-4.16,0-6.24c2.34,0,4.25,0,6.29,0
					c0,2.26,0,4.25,0,6.23L100.5,147.19z"/>
				<path class="st4" d="M106.79,102.49c1.94,0,3.89,0,6.4,0c0,2.13,0,4.27,0,6.41l0.11-0.11c-2.06,0-4.12,0-6.4,0
					c0-2.48,0-4.45,0-6.41L106.79,102.49z"/>
				<path class="st4" d="M113.18,108.9c1.94,0,3.88,0,6.4,0c0,2.12,0,4.26,0,6.4l0.11-0.12c-2.06,0-4.12,0-6.4,0
					c0-2.48,0-4.44,0-6.39L113.18,108.9z"/>
				<path class="st4" d="M125.98,121.7c1.94,0,3.88,0,6.4,0c0,2.12,0,4.25,0,6.39l0.11-0.11c-2.06,0-4.11,0-6.4,0
					c0-2.49,0-4.45,0-6.4L125.98,121.7z"/>
				<path class="st4" d="M119.58,115.3c2.04,0,4.08,0,6.4,0c0,2.31,0,4.36,0,6.4l0.11-0.12c-2.06,0-4.12,0-6.4,0
					c0-2.48,0-4.44,0-6.4L119.58,115.3z"/>
			</g>
		</g>
		<g>
			<path class="st3" d="M60.35,65.79c0.96-3.9,3.71-7.31,7.71-8.92c4.07-1.64,8.49-1.06,11.92,1.17l4.98-3.19
				c-5.08-4.35-12.36-5.81-18.98-3.13c-6.47,2.61-10.65,8.49-11.43,14.97L60.35,65.79z"/>
			<path class="st3" d="M44.24,68.29c0.24-11.12,6.97-21.59,17.93-26.01c11.25-4.55,23.72-1.4,31.59,6.94l4.73-3.03
				c-9.35-10.51-24.63-14.61-38.41-9.05c-13.39,5.41-21.47,18.38-21.38,32.01L44.24,68.29z"/>
			<path class="st3" d="M28.55,70.73C27.8,52.5,38.42,34.91,56.28,27.7c18.39-7.43,38.9-1.62,50.91,12.93l4.7-3.01
				C98.44,20.88,75.11,14.1,54.2,22.55c-20.29,8.2-32.27,28.3-31.16,49.03L28.55,70.73z"/>
			<path class="st3" d="M12.93,73.15c-1.79-25.31,12.69-50.04,37.45-60.04c25.52-10.31,54.04-1.78,70.11,18.99l4.69-3
				C107.69,6.13,76.34-3.35,48.31,7.97C21.11,18.96,5.27,46.2,7.42,74.01L12.93,73.15z"/>
		</g>
	</g>
</g>
</svg>
