<?xml version="1.0" encoding="utf-8"?>
<!-- Generator: Adobe Illustrator 26.5.0, SVG Export Plug-In . SVG Version: 6.00 Build 0)  -->
<svg version="1.1" id="Capa_1" xmlns="http://www.w3.org/2000/svg" xmlns:xlink="http://www.w3.org/1999/xlink" x="0px" y="0px"
	 viewBox="0 0 512 512" style="enable-background:new 0 0 512 512;" xml:space="preserve">
<style type="text/css">
	.st0{fill:#FFFFFF;}
</style>
<path class="st0" d="M256,0C114.8,0,0,114.8,0,256s114.8,256,256,256s256-114.8,256-256S397.2,0,256,0z M226.6,336.4
	c0,5.6-4.5,10.1-10.1,10.1h-40.1c-5.6,0-10.1-4.5-10.1-10.1V175.6c0-5.6,4.5-10.1,10.1-10.1h40.1c5.6,0,10.1,4.5,10.1,10.1V336.4z
	 M345.8,336.4c0,5.6-4.5,10.1-10.1,10.1h-40.1c-5.6,0-10.1-4.5-10.1-10.1V175.6c0-5.6,4.5-10.1,10.1-10.1h40.1
	c5.6,0,10.1,4.5,10.1,10.1V336.4z"/>
</svg>
