<?xml version="1.0" encoding="utf-8"?>
<!-- Generator: Adobe Illustrator 26.5.0, SVG Export Plug-In . SVG Version: 6.00 Build 0)  -->
<svg version="1.1" id="Capa_1" xmlns="http://www.w3.org/2000/svg" xmlns:xlink="http://www.w3.org/1999/xlink" x="0px" y="0px"
	 viewBox="0 0 512 512" style="enable-background:new 0 0 512 512;" xml:space="preserve">
<style type="text/css">
	.st0{fill-rule:evenodd;clip-rule:evenodd;fill:#FFFFFF;}
</style>
<path class="st0" d="M506,256c0.1,36.6-6.9,72.9-21,106.6c-14,33.8-34.6,64.3-60.3,90.1c-5.2,4.9-12.1,7.9-19.6,7.8
	c-7.2,0-14.3-3-19.5-8.1s-8.1-12.1-8.1-19.5c0-7.3,2.7-14.3,7.8-19.6c20.6-20.6,37.1-45.2,48.3-72.2c11.2-27,16.8-55.9,16.8-85.2
	c0-61.4-25-116.9-65.1-157.3c-5.2-5.2-8.1-12.1-8.1-19.6c0-7.3,3-14.4,8.1-19.6c2.5-2.5,5.6-4.7,8.9-5.9c3.4-1.4,6.9-2.1,10.6-2.1
	c7.3,0,14.4,3,19.6,8.1c25.8,25.8,46.5,56.4,60.3,90.1C498.8,183.3,506,219.6,506,256z"/>
<path class="st0" d="M395,256.2c0,21.9-4.2,43.6-12.7,63.8c-8.5,20.3-20.6,38.7-36.2,54.1c-5.2,5.2-12.1,8.1-19.6,8.1
	c-7.3,0-14.4-3-19.6-8.1c-5.2-5.2-8.1-12.1-8.1-19.6c0-7.3,3-14.4,8.1-19.6c10.3-10.3,18.5-22.5,24-36.2c5.6-13.4,8.5-28,8.5-42.7
	c0-14.5-3-29.1-8.5-42.7c-5.6-13.4-13.7-25.8-24-36.2c-2.5-2.5-4.7-5.6-6.1-8.9c-1.4-3.4-2.1-7.1-2.1-10.6c0-3.7,0.7-7.2,2.1-10.6
	s3.4-6.4,6.1-8.9s5.6-4.7,8.9-6.1c3.4-1.4,7.1-2.1,10.6-2.1s7.2,0.7,10.6,2.1c3.4,1.4,6.4,3.4,8.9,6.1
	c15.5,15.5,27.8,33.9,36.2,54.1C390.6,212.7,395,234.4,395,256.2z"/>
<path class="st0" d="M256,89.9v333c0,5.5-1.6,10.9-4.7,15.5c-3.1,4.7-7.3,8.1-12.6,10.3c-5.2,2.3-10.6,2.5-16,1.6
	c-5.4-1-10.3-3.8-14.3-7.6l-103-103H33.7c-7.3,0-14.4-3-19.6-8.1c-5.3-5.1-8.1-12-8.1-19.5V200.8c0-7.3,3-14.4,8.1-19.6
	c5.2-5.2,12.1-8.1,19.6-8.1h71.9l103-103c4-4,8.8-6.5,14.3-7.6c5.4-1,11-0.6,16,1.6c2.5,1,4.9,2.4,7.1,4.2c2.1,1.7,4,3.8,5.5,6.1
	C254.4,79,256,84.4,256,89.9z"/>
</svg>
