<?xml version="1.0" encoding="utf-8"?>
<!-- Generator: Adobe Illustrator 27.3.1, SVG Export Plug-In . SVG Version: 6.00 Build 0)  -->
<svg version="1.1" id="Layer_1" xmlns="http://www.w3.org/2000/svg" xmlns:xlink="http://www.w3.org/1999/xlink" x="0px" y="0px"
	 viewBox="0 0 682 682" style="enable-background:new 0 0 682 682;" xml:space="preserve">
<style type="text/css">
	.st0{fill:#FFFFFF;}
</style>
<path class="st0" d="M361.3,553.5c-27.7,0-54.9,0-82.5,0c0-88.6,0-177,0-265.8c26.1,0,52.3,0,79.1,0c0,11.8,0,23.5,0,35.4
	c5.7-6.6,10.5-13.4,16.5-18.9c14.6-13.7,32.4-20.9,52.1-22.7c17.1-1.6,34.1-0.3,50.6,4.8c27.5,8.6,43.7,27.9,51.8,54.9
	c5.4,17.9,7.3,36.3,7.4,54.8c0.3,51.5,0.2,102.9,0.3,154.4c0,0.6-0.1,1.3-0.2,2.3c-27.4,0-54.7,0-82.6,0c0-1.9,0-3.8,0-5.7
	c0-44,0.1-88-0.2-132c-0.1-9.2-0.9-18.5-2.6-27.6c-5.1-27.6-22.9-36.6-48-33.7c-23.3,2.6-36.1,16.3-39.7,41.6
	c-1.3,9.1-1.9,18.4-1.9,27.6c-0.2,41.6-0.1,83.1-0.1,124.7C361.3,549.4,361.3,551.3,361.3,553.5z"/>
<path class="st0" d="M226.3,553.5c-27.4,0-54.6,0-82.1,0c0-88.7,0-177.2,0-266c27.4,0,54.6,0,82.1,0
	C226.3,376.2,226.3,464.7,226.3,553.5z"/>
<path class="st0" d="M233,203.1c-0.6,27.1-22.5,48.3-49.3,47.7c-25.7-0.6-47-23.1-46.5-49.1c0.6-26.4,22.7-47.8,48.9-47.1
	C212.5,155.3,233.5,177,233,203.1z"/>
</svg>
