<?xml version="1.0" encoding="utf-8"?>
<!-- Generator: Adobe Illustrator 27.3.1, SVG Export Plug-In . SVG Version: 6.00 Build 0)  -->
<svg version="1.1" id="Layer_1" xmlns="http://www.w3.org/2000/svg" xmlns:xlink="http://www.w3.org/1999/xlink" x="0px" y="0px"
	 viewBox="0 0 800 800" style="enable-background:new 0 0 800 800;" xml:space="preserve">
<style type="text/css">
	.st0{fill-rule:evenodd;clip-rule:evenodd;fill:#FFFFFF;}
</style>
<path class="st0" d="M66.7,400C66.7,215.9,215.9,66.7,400,66.7S733.3,215.9,733.3,400S584.1,733.3,400,733.3S66.7,584.1,66.7,400z
	 M466.7,266.7c18.4,0,33.3,14.9,33.3,33.3v200c0,18.4-14.9,33.3-33.3,33.3s-33.3-14.9-33.3-33.3V300
	C433.3,281.6,448.3,266.7,466.7,266.7z M333.3,266.7c18.4,0,33.3,14.9,33.3,33.3v200c0,18.4-14.9,33.3-33.3,33.3S300,518.4,300,500
	V300C300,281.6,314.9,266.7,333.3,266.7z"/>
</svg>
