<?xml version="1.0" encoding="utf-8"?>
<!-- Generator: Adobe Illustrator 27.3.1, SVG Export Plug-In . SVG Version: 6.00 Build 0)  -->
<svg version="1.1" id="Layer_1" xmlns="http://www.w3.org/2000/svg" xmlns:xlink="http://www.w3.org/1999/xlink" x="0px" y="0px"
	 viewBox="0 0 800 800" style="enable-background:new 0 0 800 800;" xml:space="preserve">
<style type="text/css">
	.st0{fill-rule:evenodd;clip-rule:evenodd;fill:#FFFFFF;}
</style>
<path class="st0" d="M559.6,163.7c9.7-9.7,25.4-9.7,35.1,0c135.7,135.7,135.7,355.8,0,491.5c-9.7,9.7-25.4,9.7-35.1,0
	c-9.7-9.7-9.7-25.4,0-35.1c116.3-116.3,116.3-304.9,0-421.3C549.9,189.1,549.9,173.4,559.6,163.7z M524.5,233.9
	c-9.7-9.7-25.4-9.7-35.1,0c-9.7,9.7-9.7,25.4,0,35.1c77.6,77.6,77.6,203.3,0,280.9c-9.7,9.7-9.7,25.4,0,35.1
	c9.7,9.7,25.4,9.7,35.1,0C621.5,488,621.5,330.8,524.5,233.9z M454.3,304.1c-9.7-9.7-25.4-9.7-35.1,0c-9.7,9.7-9.7,25.4,0,35.1
	c38.8,38.8,38.8,101.6,0,140.4c-9.7,9.7-9.7,25.4,0,35.1c9.7,9.7,25.4,9.7,35.1,0C512.5,456.6,512.5,362.3,454.3,304.1z
	 M369.3,252.3c0-32.2-37.2-50-62.3-29.9l-100.1,80.1h-42.2c-42.4,0-76.7,34.3-76.7,76.7v51.1c0,42.4,34.3,76.7,76.7,76.7h42.2
	L306.9,587c25.1,20.1,62.3,2.2,62.3-29.9V252.3z"/>
</svg>
