<?xml version="1.0" encoding="utf-8"?>
<!-- Generator: Adobe Illustrator 27.3.1, SVG Export Plug-In . SVG Version: 6.00 Build 0)  -->
<svg version="1.1" id="Layer_1" xmlns="http://www.w3.org/2000/svg" xmlns:xlink="http://www.w3.org/1999/xlink" x="0px" y="0px"
	 viewBox="0 0 682 682" style="enable-background:new 0 0 682 682;" xml:space="preserve">
<style type="text/css">
	.st0{fill:#FFFFFF;}
</style>
<path class="st0" d="M655.9,176.9c-7.6-28.2-29.8-50.4-57.9-58c-51.4-14.1-257.3-14.1-257.3-14.1s-205.8,0-257.2,13.5
	c-27.6,7.6-50.4,30.3-57.9,58.5C12,228.3,12,335,12,335s0,107.2,13.5,158.1c7.6,28.2,29.8,50.4,58,58c52,14.1,257.2,14.1,257.2,14.1
	s205.8,0,257.2-13.5c28.2-7.6,50.4-29.8,58-57.9c13.5-51.4,13.5-158.1,13.5-158.1S670,228.3,655.9,176.9z M275.2,433.6V236.5
	L446.3,335L275.2,433.6z"/>
</svg>
